<svg height="64px" width="64px" version="1.1" id="Layer_1" xmlns="http://www.w3.org/2000/svg" xmlns:xlink="http://www.w3.org/1999/xlink" viewBox="0 0 511.982 511.982" xml:space="preserve" fill="#000000"><g id="SVGRepo_bgCarrier" stroke-width="0"></g><g id="SVGRepo_tracerCarrier" stroke-linecap="round" stroke-linejoin="round"></g><g id="SVGRepo_iconCarrier"> <path style="fill:#ED5564;" d="M380.863,3.123c-4.156-4.164-10.922-4.164-15.078,0c-0.984,0.977-1.719,2.094-2.234,3.289h-0.016 L224.884,325.144l19.562,8.5L383.097,14.92l0,0C384.785,11.013,384.051,6.31,380.863,3.123z"></path> <path style="fill:#E6E9ED;" d="M230.188,46.997c17.523,31.999-64.334,19.335-74.889,80.997 c-14.507,84.771,59.999,80.889,59.999,80.889l103.114-9.555c0,0,49.686,28.304,22.438-63.779 C309.318,28.997,212.665,14.998,230.188,46.997z"></path> <polygon style="fill:#CCD1D9;" points="298.662,469.359 192.002,469.359 170.666,511.982 319.99,511.982 "></polygon> <path style="fill:#EC87C0;" d="M341.318,127.994h-95.99h-95.989c0,0-21.335,21.335-21.335,85.333 c0,42.663,10.664,132.378,63.998,256h21.328h85.333c53.327-123.622,63.998-213.338,63.998-256 C362.66,149.329,341.318,127.994,341.318,127.994z"></path> <g> <path style="fill:#D770AD;" d="M213.329,469.359h-21.328c0.008,2.718,1.047,5.437,3.125,7.499c4.164,4.156,10.921,4.156,15.085,0 C212.283,474.796,213.322,472.077,213.329,469.359z"></path> <path style="fill:#D770AD;" d="M234.664,469.359h-21.327c0.008,2.718,1.047,5.437,3.117,7.499c4.172,4.156,10.922,4.156,15.086,0 C233.617,474.796,234.657,472.077,234.664,469.359z"></path> <path style="fill:#D770AD;" d="M255.992,469.359h-21.328c0.016,2.718,1.055,5.437,3.125,7.499c4.164,4.156,10.921,4.156,15.085,0 C254.945,474.796,255.984,472.077,255.992,469.359z"></path> <path style="fill:#D770AD;" d="M277.32,469.359H256c0.008,2.718,1.047,5.437,3.125,7.499c4.164,4.156,10.914,4.156,15.07,0 C276.273,474.796,277.32,472.077,277.32,469.359z"></path> <path style="fill:#D770AD;" d="M298.646,469.359H277.32c0.016,2.718,1.047,5.437,3.124,7.499c4.172,4.156,10.922,4.156,15.094,0 C297.599,474.796,298.646,472.077,298.646,469.359z"></path> </g> <g> <path style="fill:#F5F7FA;" d="M307.849,72.324c-5.75,12.929-22.327,44.061-53.381,56.803l8.102,19.734 c30.89-12.679,49.607-38.819,59.342-56.764C317.506,84.777,312.756,78.199,307.849,72.324z"></path> <path style="fill:#F5F7FA;" d="M270.547,94.557c12.085-13.343,20.991-25.968,26.24-34.069c-5.546-5.296-11.155-9.796-16.687-13.554 c-11.312,17.78-48.99,70.904-100.918,81.614l4.305,20.89C213.509,143.252,243.617,124.275,270.547,94.557z"></path> </g> <path style="fill:#E6E9ED;" d="M338.209,493.764c-2.094-2.078-4.812-3.125-7.547-3.125l0,0H160.003l0,0 c-2.734,0-5.461,1.047-7.547,3.125c-4.164,4.172-4.164,10.937,0,15.093c2.086,2.078,4.812,3.125,7.547,3.125l0,0h170.659l0,0 c2.734,0,5.453-1.031,7.547-3.125C342.365,504.701,342.365,497.936,338.209,493.764z"></path> <g> <path style="fill:#D770AD;" d="M131.777,170.657H358.88c-6.125-31.226-17.562-42.663-17.562-42.663h-95.99h-95.989 C149.339,127.994,137.902,139.431,131.777,170.657z"></path> <path style="fill:#D770AD;" d="M252.875,237.78c-4.164-4.164-10.921-4.164-15.085,0c-2.086,2.086-3.125,4.812-3.125,7.546l0,0 v149.316l0,0c0,2.75,1.039,5.469,3.125,7.562c4.164,4.156,10.921,4.156,15.085,0c2.078-2.094,3.125-4.812,3.125-7.562l0,0V245.326 l0,0C256,242.593,254.953,239.866,252.875,237.78z"></path> <path style="fill:#D770AD;" d="M306.209,237.78c-4.172-4.164-10.921-4.164-15.093,0c-1.703,1.695-2.688,3.828-3,6.039H288.1 l-21.327,149.323h0.008c-0.453,3.219,0.539,6.594,3.008,9.062c4.156,4.156,10.921,4.156,15.077,0 c1.703-1.719,2.688-3.844,3.016-6.047l0,0l21.343-149.324h-0.016C309.662,243.624,308.662,240.249,306.209,237.78z"></path> <path style="fill:#D770AD;" d="M223.891,393.142l-21.335-149.331l-0.008,0.008c-0.312-2.211-1.305-4.344-3.007-6.039 c-4.164-4.164-10.914-4.164-15.086,0c-2.46,2.469-3.46,5.844-3,9.046l-0.016,0.008l21.335,149.324h0.008 c0.32,2.203,1.312,4.328,3.008,6.047c4.164,4.156,10.921,4.156,15.085,0c2.469-2.469,3.461-5.844,3.008-9.062L223.891,393.142 L223.891,393.142z"></path> </g> <path style="fill:#434A54;" d="M202.618,75.66l-21.241-2l-0.008,0.141c0-0.062,0.367-6.336-3.43-13.109 c-5.141-9.179-15.445-15.312-30.616-18.218c-5.781-1.109-9.578-6.695-8.469-12.484c1.109-5.789,6.703-9.578,12.484-8.468 c15.406,2.953,35.881,10.593,46.006,30.218C203.533,63.738,202.728,74.48,202.618,75.66z"></path> <circle style="fill:#ED5564;" cx="192.001" cy="74.661" r="31.999"></circle> </g></svg>